# xmcd
#
# Track frame offsets:
#	150
#	15223
#	27877
#	42235
#	55761
#	69939
#	83347
#	95536
#	107493
#	119414
#	132920
#	144415
#	158278
#	177475
#	197159
#	207832
#	221090
#	235516
#	250326
#	265387
#
# Disc length: 3719 seconds
#
# Revision: 0
# Processed by: cddbd v1.5.1PL2 Copyright (c) Steve Scherf et al.
# Submitted via: dBpowerAMP V4.0
#
DISCID=040e8514
DTITLE=Louis Armstrong - 40 Best Original Hits CD1
DYEAR=1900
DGENRE=
TTITLE0=Wolvering Blues
TTITLE1=W.P.A.
TTITLE2=The song is ended
TTITLE3=You Rascal You
TTITLE4=Rockin' Chair
TTITLE5=Mahogany hall stomp
TTITLE6=My walking stick
TTITLE7=Blues for yesterday
TTITLE8=Boog it
TTITLE9=I wonder
TTITLE10=Cut off my legs and call me "shorty"
TTITLE11=Carry me back to old virginny
TTITLE12=Jack Armstrong Blues
TTITLE13=Long, Long Journey
TTITLE14=Marie
TTITLE15=I can't give you anything but love
TTITLE16=West end blues
TTITLE17=Please stop playing those blues
TTITLE18=A song was born
TTITLE19=Linger in your arms a little longer
EXTD=
EXTT0=
EXTT1=
EXTT2=
EXTT3=
EXTT4=
EXTT5=
EXTT6=
EXTT7=
EXTT8=
EXTT9=
EXTT10=
EXTT11=
EXTT12=
EXTT13=
EXTT14=
EXTT15=
EXTT16=
EXTT17=
EXTT18=
EXTT19=
PLAYORDER=
